<svg width="70" height="70" viewBox="0 0 70 70" fill="none" xmlns="http://www.w3.org/2000/svg">
<g clip-path="url(#clip0_2001_123)">
<path d="M60.2872 44.4609H32.5408L52.1566 64.0766C53.0238 64.9439 54.46 64.8662 55.2151 63.8997C59.1101 58.9137 61.5526 53.0217 62.3247 46.7491C62.4746 45.5317 61.5139 44.4609 60.2872 44.4609Z" fill="#46AB97"/>
<path d="M26.1397 43.8603C25.7551 43.4757 25.539 42.9541 25.5389 42.4102V17.2C25.5389 15.9437 24.418 14.9726 23.1777 15.1728C10.0278 17.2955 -0.0411521 28.7454 0.000137016 42.4944C0.0455276 57.6168 12.3956 69.9616 27.5179 69.9999C33.4176 70.0148 39.039 68.1879 43.7275 64.7902C44.7453 64.0525 44.8537 62.5742 43.9648 61.6854L26.1397 43.8603Z" fill="#E36554"/>
<path d="M69.9895 38.1013C67.9607 18.0389 51.961 2.03943 31.8987 0.0105282C30.6887 -0.111835 29.6406 0.8467 29.6406 2.06281V40.3594H67.9372C69.1533 40.3594 70.1118 39.3113 69.9895 38.1013Z" fill="#F4BC54"/>
</g>
<defs>
<clipPath id="clip0_2001_123">
<rect width="70" height="70" fill="white"/>
</clipPath>
</defs>
</svg>
