<?xml version="1.0" encoding="utf-8"?><svg xmlns="http://www.w3.org/2000/svg" xmlns:xlink="http://www.w3.org/1999/xlink"><symbol viewBox="0 0 25 25" id="comment" xmlns="http://www.w3.org/2000/svg"><path fill-rule="evenodd" clip-rule="evenodd" d="M7.29432 8.11609C5.90851 10.0051 5.4258 12.6353 6.58647 15.5735L6.77627 16.054L6.48302 16.4822L6.48134 16.4847L6.47538 16.4934L6.4511 16.5292C6.42963 16.5608 6.39787 16.6078 6.35744 16.668C6.27654 16.7885 6.16109 16.9619 6.02396 17.1717C5.749 17.5924 5.39004 18.1548 5.04855 18.7291C4.79124 19.1618 4.55345 19.5853 4.36999 19.9524C4.94842 19.8827 5.66524 19.7589 6.39036 19.6177C7.17438 19.465 7.94535 19.2965 8.52191 19.1658C8.80973 19.1006 9.04808 19.0449 9.2141 19.0057C9.29709 18.9861 9.36196 18.9706 9.40583 18.9601L9.45553 18.9481L9.47083 18.9444L9.94323 18.8294L10.3322 19.1134C10.5986 19.3079 11.3721 19.5724 12.5558 19.6389C13.686 19.7024 15.0208 19.5741 16.2856 19.1542C17.5467 18.7356 18.7035 18.0398 19.5447 16.9896C20.3783 15.9489 20.9568 14.4925 20.9568 12.4493C20.9568 11.1484 20.5036 9.37178 19.3699 7.8815C18.266 6.43046 16.4987 5.22224 13.7633 4.98941C11.0325 5.0017 8.68361 6.22232 7.29432 8.11609ZM9.5513 20.9729C10.3107 21.3536 11.362 21.5644 12.4381 21.6249C13.798 21.7013 15.4003 21.5498 16.9449 21.0372C18.493 20.5233 20.0178 19.6338 21.1559 18.213C22.3016 16.7825 23 14.882 23 12.4493C23 10.7661 22.4318 8.56413 21.0117 6.69743C19.5674 4.799 17.261 3.27688 13.8905 3.00344L13.8482 3L13.8058 3C10.4251 2.99976 7.42772 4.51165 5.63171 6.95984C3.90827 9.3091 3.3385 12.4549 4.49917 15.8015C4.43982 15.891 4.37292 15.9924 4.30021 16.1037C4.01648 16.5378 3.64117 17.1255 3.28033 17.7324C2.92368 18.3321 2.56373 18.9796 2.32358 19.5252C2.20616 19.7919 2.09593 20.0817 2.04033 20.3523C2.01279 20.4864 1.98817 20.664 2.00611 20.8561C2.02359 21.0433 2.09255 21.3501 2.35662 21.6072C2.59245 21.8368 2.87333 21.9136 3.00803 21.9438C3.17062 21.9804 3.33541 21.9936 3.47804 21.998C3.76623 22.0071 4.10339 21.9838 4.44486 21.9468C5.13588 21.8721 5.98436 21.7255 6.79106 21.5684C7.60328 21.4102 8.39662 21.2368 8.98531 21.1033C9.20512 21.0535 9.39696 21.0091 9.5513 20.9729Z"/></symbol><symbol viewBox="0 0 25 26" id="cross" xmlns="http://www.w3.org/2000/svg"><path fill-rule="evenodd" clip-rule="evenodd" d="M5.31381 5.81381C5.73223 5.3954 6.41062 5.3954 6.82904 5.81381L12.5 11.4848L18.171 5.81381C18.5894 5.3954 19.2678 5.3954 19.6862 5.81381C20.1046 6.23223 20.1046 6.91062 19.6862 7.32904L14.0152 13L19.6862 18.671C20.1046 19.0894 20.1046 19.7678 19.6862 20.1862C19.2678 20.6046 18.5894 20.6046 18.171 20.1862L12.5 14.5152L6.82904 20.1862C6.41062 20.6046 5.73223 20.6046 5.31381 20.1862C4.8954 19.7678 4.8954 19.0894 5.31381 18.671L10.9848 13L5.31381 7.32904C4.8954 6.91062 4.8954 6.23223 5.31381 5.81381Z"/></symbol><symbol viewBox="0 0 25 25" id="drop" xmlns="http://www.w3.org/2000/svg"><path fill-rule="evenodd" clip-rule="evenodd" d="M19.6862 8.3295C20.1046 8.76884 20.1046 9.48116 19.6862 9.9205L13.2576 16.6705C12.8392 17.1098 12.1608 17.1098 11.7424 16.6705L5.31381 9.92049C4.8954 9.48115 4.8954 8.76884 5.31381 8.3295C5.73223 7.89016 6.41062 7.89016 6.82904 8.3295L12.5 14.284L18.171 8.3295C18.5894 7.89016 19.2678 7.89016 19.6862 8.3295Z"/></symbol><symbol viewBox="0 0 25 26" id="lock" xmlns="http://www.w3.org/2000/svg"><path fill-rule="evenodd" clip-rule="evenodd" d="M5.5 8.4C5.5 4.58923 8.63401 1.5 12.5 1.5C15.3723 1.5 17.8379 3.20503 18.917 5.63957C19.175 6.22157 18.9055 6.89952 18.315 7.15381C17.7246 7.40809 17.0368 7.14243 16.7789 6.56043C16.0577 4.93339 14.4118 3.8 12.5 3.8C9.92267 3.8 7.83333 5.85949 7.83333 8.4V9.55187C8.11066 9.54999 8.40546 9.54999 8.71848 9.55H16.2815C17.2206 9.54998 17.9957 9.54997 18.6271 9.60082C19.2829 9.65364 19.8857 9.76699 20.452 10.0514C21.33 10.4924 22.044 11.1961 22.4914 12.0616C22.7799 12.6198 22.8949 13.214 22.9484 13.8604C23 14.4828 23 15.2468 23 16.1725V17.8775C23 18.8032 23 19.5672 22.9484 20.1896C22.8949 20.836 22.7799 21.4302 22.4914 21.9884C22.044 22.8539 21.33 23.5576 20.452 23.9986C19.8857 24.283 19.2829 24.3964 18.6271 24.4492C17.9957 24.5 17.2207 24.5 16.2815 24.5H8.71845C7.77934 24.5 7.00426 24.5 6.37287 24.4492C5.71709 24.3964 5.11427 24.283 4.54804 23.9986C3.66996 23.5576 2.95605 22.8539 2.50864 21.9884C2.22013 21.4302 2.10514 20.836 2.05156 20.1896C1.99997 19.5672 1.99999 18.8032 2 17.8775V16.1725C1.99999 15.2468 1.99997 14.4828 2.05156 13.8604C2.10514 13.214 2.22013 12.6198 2.50864 12.0616C2.95605 11.1961 3.66996 10.4924 4.54804 10.0514C4.85383 9.89779 5.17029 9.79409 5.5 9.72287V8.4ZM6.56288 11.8932C6.05139 11.9344 5.78982 12.009 5.60736 12.1007C5.16831 12.3212 4.81136 12.673 4.58765 13.1058C4.49468 13.2857 4.41893 13.5435 4.37714 14.0477C4.33424 14.5653 4.33333 15.2349 4.33333 16.22V17.83C4.33333 18.8151 4.33424 19.4847 4.37714 20.0023C4.41893 20.5065 4.49468 20.7643 4.58765 20.9442C4.81136 21.377 5.16831 21.7288 5.60736 21.9493C5.78982 22.041 6.05139 22.1156 6.56288 22.1568C7.08798 22.1991 7.76732 22.2 8.76667 22.2H16.2333C17.2327 22.2 17.912 22.1991 18.4371 22.1568C18.9486 22.1156 19.2102 22.041 19.3926 21.9493C19.8317 21.7288 20.1886 21.377 20.4123 20.9442C20.5053 20.7643 20.5811 20.5065 20.6229 20.0023C20.6658 19.4847 20.6667 18.8151 20.6667 17.83V16.22C20.6667 15.2349 20.6658 14.5653 20.6229 14.0477C20.5811 13.5435 20.5053 13.2857 20.4123 13.1058C20.1886 12.673 19.8317 12.3212 19.3926 12.1007C19.2102 12.009 18.9486 11.9344 18.4371 11.8932C17.912 11.8509 17.2327 11.85 16.2333 11.85H8.76667C7.76732 11.85 7.08798 11.8509 6.56288 11.8932ZM12.5 14.725C13.1443 14.725 13.6667 15.2399 13.6667 15.875V18.175C13.6667 18.8101 13.1443 19.325 12.5 19.325C11.8557 19.325 11.3333 18.8101 11.3333 18.175V15.875C11.3333 15.2399 11.8557 14.725 12.5 14.725Z"/></symbol><symbol viewBox="0 0 25 25" id="mail" xmlns="http://www.w3.org/2000/svg"><path fill-rule="evenodd" clip-rule="evenodd" d="M7.49698 4H17.503C18.2714 3.99999 18.9056 3.99998 19.4221 4.04174C19.9587 4.08511 20.4519 4.1782 20.9152 4.41175C21.6336 4.77394 22.2177 5.35187 22.5838 6.0627C22.8115 6.50503 22.9071 6.97494 22.9529 7.48435C23.004 7.63866 23.0129 7.80144 22.9826 7.95684C22.9999 8.38195 22.9999 8.87367 22.9999 9.43875V15.5613C22.9999 16.3215 22.9999 16.9489 22.9577 17.4601C22.9139 17.9909 22.8198 18.4789 22.5838 18.9373C22.2177 19.6481 21.6336 20.2261 20.9152 20.5882C20.4519 20.8218 19.9587 20.9149 19.4221 20.9583C18.9056 21 18.2714 21 17.503 21H7.49696C6.72859 21 6.09444 21 5.57786 20.9583C5.04131 20.9149 4.5481 20.8218 4.08483 20.5882C3.3664 20.2261 2.78229 19.6481 2.41624 18.9373C2.18019 18.4789 2.0861 17.9909 2.04227 17.4601C2.00006 16.9489 2.00007 16.3215 2.00008 15.5612V9.43877C2.00007 8.87368 2.00006 8.38196 2.01739 7.95684C1.98708 7.80144 1.99603 7.63865 2.04706 7.48433C2.09287 6.97493 2.18845 6.50503 2.41624 6.0627C2.78229 5.35187 3.3664 4.77394 4.08483 4.41175C4.5481 4.1782 5.04131 4.08511 5.57786 4.04174C6.09445 3.99998 6.72861 3.99999 7.49698 4ZM3.90916 9.59173V15.5222C3.90916 16.3312 3.9099 16.8812 3.945 17.3062C3.97919 17.7203 4.04117 17.932 4.11723 18.0798C4.30026 18.4352 4.59232 18.7241 4.95153 18.9052C5.10082 18.9805 5.31483 19.0418 5.73332 19.0756C6.16294 19.1104 6.71876 19.1111 7.5364 19.1111H17.4636C18.2812 19.1111 18.8371 19.1104 19.2667 19.0756C19.6852 19.0418 19.8992 18.9805 20.0485 18.9052C20.4077 18.7241 20.6997 18.4352 20.8828 18.0798C20.9588 17.932 21.0208 17.7203 21.055 17.3062C21.0901 16.8812 21.0908 16.3312 21.0908 15.5222V9.59173L14.799 13.9494C14.762 13.9751 14.7253 14.0006 14.689 14.0258C14.1691 14.387 13.7125 14.7042 13.1926 14.8324C12.7378 14.9446 12.2622 14.9446 11.8074 14.8324C11.2875 14.7042 10.831 14.387 10.3111 14.0258C10.2747 14.0006 10.238 13.9751 10.201 13.9494L3.90916 9.59173ZM21.0118 7.34077L13.7043 12.402C13.0085 12.8839 12.861 12.9675 12.7309 12.9996C12.5793 13.037 12.4207 13.037 12.2691 12.9996C12.139 12.9675 11.9915 12.8839 11.2957 12.402L3.98816 7.34077C4.02226 7.14511 4.06663 7.01851 4.11723 6.92024C4.30026 6.56482 4.59232 6.27586 4.95153 6.09477C5.10082 6.0195 5.31483 5.95818 5.73332 5.92435C6.16294 5.88962 6.71876 5.88889 7.5364 5.88889H17.4636C18.2812 5.88889 18.8371 5.88962 19.2667 5.92435C19.6852 5.95818 19.8992 6.0195 20.0485 6.09477C20.4077 6.27586 20.6997 6.56482 20.8828 6.92024C20.9334 7.01851 20.9777 7.14511 21.0118 7.34077Z"/></symbol><symbol viewBox="0 0 25 25" id="phone" xmlns="http://www.w3.org/2000/svg"><path fill-rule="evenodd" clip-rule="evenodd" d="M6.97533 4.10765C6.69155 3.96412 6.35642 3.96412 6.07263 4.10765C5.96591 4.16163 5.83287 4.27689 5.24585 4.86392L5.08822 5.02155C4.528 5.58177 4.37699 5.74379 4.25628 5.95868C4.11637 6.20774 3.99915 6.65848 4 6.94416C4.00076 7.19836 4.03829 7.35145 4.20355 7.9337C5.01916 10.8073 6.55775 13.5191 8.82208 15.7834C11.0864 18.0477 13.7982 19.5863 16.6718 20.4019C17.254 20.5672 17.4071 20.6047 17.6613 20.6055C17.947 20.6063 18.3977 20.4891 18.6468 20.3492C18.8617 20.2285 19.0237 20.0775 19.5839 19.5172L19.7415 19.3596C20.3286 18.7726 20.4438 18.6395 20.4978 18.5328C20.6413 18.249 20.6413 17.9139 20.4978 17.6301C20.4438 17.5234 20.3286 17.3904 19.7415 16.8033L20.4486 16.0962L19.7415 16.8033L19.5467 16.6085C19.161 16.2228 19.0742 16.1438 19.0085 16.101C18.6771 15.8856 18.2498 15.8856 17.9183 16.101C17.8526 16.1438 17.7659 16.2228 17.3801 16.6085C17.3725 16.6161 17.3647 16.6239 17.3567 16.632C17.267 16.722 17.1534 16.836 17.017 16.9337L16.4348 16.1207L17.0169 16.9337C16.53 17.2824 15.8679 17.3953 15.2929 17.2277C15.1325 17.181 15.0005 17.1173 14.8978 17.0678C14.8897 17.0639 14.8817 17.0601 14.874 17.0563C13.324 16.3122 11.8723 15.2981 10.5898 14.0156C9.30737 12.7331 8.29328 11.2814 7.54911 9.73149C7.54539 9.72373 7.54156 9.71579 7.53764 9.70767C7.48814 9.60498 7.4245 9.47297 7.37775 9.3126L8.33779 9.03274L7.37775 9.31259C7.21012 8.73756 7.32302 8.0755 7.67173 7.58851L7.67173 7.58851C7.76943 7.45207 7.88345 7.33846 7.97351 7.24872C7.98154 7.24073 7.98937 7.23292 7.99698 7.22531C8.38269 6.8396 8.46167 6.75287 8.50441 6.68714L8.50441 6.68714C8.7199 6.35569 8.7199 5.9284 8.50441 5.59696C8.46167 5.53122 8.38269 5.4445 7.99698 5.05879L7.80211 4.86392C7.21509 4.27689 7.08205 4.16163 6.97533 4.10765ZM5.16994 2.32295C6.02128 1.89235 7.02668 1.89235 7.87802 2.32295C8.31062 2.54176 8.68617 2.91827 9.12061 3.35383C9.15219 3.38549 9.18408 3.41746 9.21633 3.4497L9.4112 3.64457C9.43244 3.66582 9.45349 3.68683 9.47433 3.70764C9.76099 3.99381 10.0079 4.24033 10.1812 4.50677L9.34279 5.05187L10.1812 4.50678C10.8277 5.50111 10.8277 6.78298 10.1812 7.77732C10.0079 8.04377 9.76099 8.29028 9.47434 8.57645C9.4535 8.59726 9.43244 8.61827 9.4112 8.63952C9.35359 8.69713 9.3242 8.72667 9.30373 8.74833C9.30336 8.74996 9.30299 8.75176 9.30266 8.75371C9.30229 8.75588 9.30202 8.75788 9.30183 8.75969C9.30512 8.76701 9.30958 8.77668 9.31573 8.78974C9.32534 8.81017 9.33664 8.8337 9.35207 8.86584C9.99989 10.2151 10.8834 11.4807 12.0041 12.6014C13.1247 13.7221 14.3903 14.6056 15.7396 15.2534L15.3068 16.1549L15.7396 15.2534C15.7718 15.2688 15.7953 15.2801 15.8157 15.2897C15.8288 15.2959 15.8385 15.3003 15.8458 15.3036C15.8476 15.3034 15.8496 15.3032 15.8517 15.3028C15.8537 15.3025 15.8555 15.3021 15.8571 15.3017C15.8788 15.2813 15.9083 15.2519 15.9659 15.1943C15.9872 15.173 16.0082 15.152 16.029 15.1311C16.3152 14.8445 16.5617 14.5975 16.8281 14.4243C17.8225 13.7778 19.1043 13.7778 20.0987 14.4243C20.3651 14.5975 20.6116 14.8445 20.8978 15.1311C20.9186 15.152 20.9396 15.173 20.9609 15.1943L20.2538 15.9014L20.9609 15.1943L21.1558 15.3891C21.188 15.4214 21.22 15.4533 21.2516 15.4848C21.6872 15.9193 22.0637 16.2948 22.2825 16.7274C22.7131 17.5788 22.7131 18.5842 22.2825 19.4355C22.0637 19.8681 21.6872 20.2437 21.2516 20.6781C21.22 20.7097 21.188 20.7416 21.1558 20.7738L20.9981 20.9315C20.9753 20.9543 20.9527 20.9769 20.9304 20.9992C20.4652 21.4649 20.1084 21.8221 19.6263 22.0929C19.0764 22.4018 18.2861 22.6073 17.6554 22.6054C17.1035 22.6038 16.701 22.4894 16.182 22.3419C16.1634 22.3366 16.1446 22.3313 16.1257 22.3259C12.9324 21.4196 9.9195 19.7092 7.40787 17.1976C4.89623 14.686 3.18588 11.673 2.27955 8.47979C2.27417 8.46086 2.26884 8.44209 2.26355 8.42347C2.11604 7.90447 2.00165 7.50199 2.00001 6.95011C1.99814 6.31934 2.20364 5.5291 2.51257 4.97915L2.51257 4.97915C2.78337 4.49708 3.14053 4.14029 3.60626 3.67504C3.62859 3.65273 3.65117 3.63017 3.674 3.60734L3.83164 3.4497C3.86388 3.41746 3.89577 3.38549 3.92735 3.35383C4.36179 2.91827 4.73735 2.54176 5.16994 2.32295L5.61617 3.20519L5.16994 2.32295Z"/></symbol><symbol viewBox="0 0 25 25" id="planet" xmlns="http://www.w3.org/2000/svg"><path fill-rule="evenodd" clip-rule="evenodd" d="M3.96152 11.5455H7.77509C7.9891 8.90787 8.87187 6.37604 10.3291 4.18574C6.93386 5.06979 4.35582 7.97854 3.96152 11.5455ZM12.5 4.43485C10.9062 6.48821 9.93112 8.95561 9.69134 11.5455H15.3087C15.0689 8.95561 14.0938 6.48821 12.5 4.43485ZM15.3087 13.4545C15.0689 16.0444 14.0938 18.5118 12.5 20.5651C10.9062 18.5118 9.93112 16.0444 9.69134 13.4545H15.3087ZM7.77509 13.4545H3.96152C4.35582 17.0215 6.93386 19.9302 10.3291 20.8143C8.87187 18.624 7.9891 16.0921 7.77509 13.4545ZM14.6709 20.8143C16.1281 18.624 17.0109 16.0921 17.2249 13.4545H21.0385C20.6442 17.0215 18.0661 19.9302 14.6709 20.8143ZM21.0385 11.5455H17.2249C17.0109 8.90787 16.1281 6.37604 14.6709 4.18574C18.0661 5.06979 20.6442 7.97854 21.0385 11.5455ZM2 12.5C2 6.70101 6.70101 2 12.5 2C18.299 2 23 6.70101 23 12.5C23 18.299 18.299 23 12.5 23C6.70101 23 2 18.299 2 12.5Z"/></symbol><symbol viewBox="0 0 25 25" id="search" xmlns="http://www.w3.org/2000/svg"><path fill-rule="evenodd" clip-rule="evenodd" d="M11.925 3.3C7.16154 3.3 3.3 7.16154 3.3 11.925C3.3 16.6885 7.16154 20.55 11.925 20.55C14.2401 20.55 16.3421 19.6379 17.8913 18.1534C17.9271 18.1038 17.9673 18.0565 18.0119 18.0118C18.0566 17.9672 18.104 17.927 18.1535 17.8912C19.6379 16.342 20.55 14.24 20.55 11.925C20.55 7.16154 16.6885 3.3 11.925 3.3ZM20.4207 18.7943C21.9399 16.9176 22.85 14.5276 22.85 11.925C22.85 5.89129 17.9587 1 11.925 1C5.89129 1 1 5.89129 1 11.925C1 17.9587 5.89129 22.85 11.925 22.85C14.5276 22.85 16.9177 21.9399 18.7944 20.4206L22.0368 23.6632C22.4859 24.1123 23.2141 24.1123 23.6632 23.6632C24.1123 23.2141 24.1123 22.4859 23.6632 22.0368L20.4207 18.7943Z"/></symbol><symbol viewBox="0 0 25 25" id="smile" xmlns="http://www.w3.org/2000/svg"><path fill-rule="evenodd" clip-rule="evenodd" d="M12.5 3.90909C7.75537 3.90909 3.90909 7.75537 3.90909 12.5C3.90909 17.2446 7.75537 21.0909 12.5 21.0909C17.2446 21.0909 21.0909 17.2446 21.0909 12.5C21.0909 7.75537 17.2446 3.90909 12.5 3.90909ZM2 12.5C2 6.70101 6.70101 2 12.5 2C18.299 2 23 6.70101 23 12.5C23 18.299 18.299 23 12.5 23C6.70101 23 2 18.299 2 12.5ZM8.20455 9.63636C8.20455 8.84559 8.84559 8.20455 9.63636 8.20455C10.4271 8.20455 11.0682 8.84559 11.0682 9.63636C11.0682 10.4271 10.4271 11.0682 9.63636 11.0682C8.84559 11.0682 8.20455 10.4271 8.20455 9.63636ZM13.9318 9.63636C13.9318 8.84559 14.5729 8.20455 15.3636 8.20455C16.1544 8.20455 16.7955 8.84559 16.7955 9.63636C16.7955 10.4271 16.1544 11.0682 15.3636 11.0682C14.5729 11.0682 13.9318 10.4271 13.9318 9.63636ZM7.25 14.4091C7.25 13.8819 7.67736 13.4545 8.20455 13.4545H16.7955C17.3226 13.4545 17.75 13.8819 17.75 14.4091C17.75 15.5779 17.067 16.6604 16.1483 17.4142C15.2108 18.1834 13.9253 18.7045 12.5 18.7045C11.0747 18.7045 9.78921 18.1834 8.85172 17.4142C7.93304 16.6604 7.25 15.5779 7.25 14.4091ZM9.5171 15.3636C9.6552 15.5569 9.83568 15.7521 10.0627 15.9383C10.6762 16.4417 11.5384 16.7955 12.5 16.7955C13.4616 16.7955 14.3238 16.4417 14.9373 15.9383C15.1643 15.7521 15.3448 15.5569 15.4829 15.3636H9.5171Z"/></symbol><symbol viewBox="0 0 25 26" id="user" xmlns="http://www.w3.org/2000/svg"><path fill-rule="evenodd" clip-rule="evenodd" d="M12.5 4.6C10.4596 4.6 8.80559 6.24535 8.80559 8.275C8.80559 10.3046 10.4596 11.95 12.5 11.95C14.5404 11.95 16.1944 10.3046 16.1944 8.275C16.1944 6.24535 14.5404 4.6 12.5 4.6ZM6.6945 8.275C6.6945 5.08556 9.29371 2.5 12.5 2.5C15.7063 2.5 18.3055 5.08556 18.3055 8.275C18.3055 11.4644 15.7063 14.05 12.5 14.05C9.29371 14.05 6.6945 11.4644 6.6945 8.275ZM9.67775 15.625C9.73798 15.625 9.7991 15.625 9.86114 15.625H15.1389C15.2009 15.625 15.262 15.625 15.3222 15.625C16.6177 15.6245 17.5023 15.6241 18.2542 15.8511C19.941 16.36 21.261 17.6731 21.7727 19.351C22.0008 20.099 22.0004 20.9789 22 22.2676C21.9999 22.3275 21.9999 22.3883 21.9999 22.45C21.9999 23.0299 21.5273 23.5 20.9444 23.5C20.3614 23.5 19.8888 23.0299 19.8888 22.45C19.8888 20.9083 19.8774 20.3702 19.7525 19.9606C19.4455 18.9539 18.6535 18.166 17.6414 17.8606C17.2297 17.7364 16.6887 17.725 15.1389 17.725H9.86114C8.31126 17.725 7.77032 17.7364 7.35859 17.8606C6.34653 18.166 5.55454 18.9539 5.24753 19.9606C5.12264 20.3702 5.11118 20.9083 5.11118 22.45C5.11118 23.0299 4.6386 23.5 4.05563 23.5C3.47267 23.5 3.00009 23.0299 3.00009 22.45C3.00009 22.3883 3.00007 22.3275 3.00004 22.2676C2.99956 20.9789 2.99924 20.099 3.22735 19.351C3.73902 17.6731 5.059 16.36 6.74577 15.8511C7.49774 15.6241 8.38231 15.6245 9.67775 15.625Z"/></symbol><symbol viewBox="0 0 25 25" id="vk" xmlns="http://www.w3.org/2000/svg"><path d="M6.0445 6.54836C6.6866 8.3485 7.50036 10.0457 8.57216 11.5693C8.71431 11.7721 8.8935 11.9524 9.08228 12.0991C9.358 12.3141 9.61814 12.2386 9.73026 11.8805C9.84884 11.5047 9.95766 10.7432 9.96412 10.3487C9.98182 9.31764 9.96148 8.64196 9.91268 7.61221C9.88105 6.95268 9.67453 6.37357 8.81996 6.19877C8.55605 6.14458 8.53154 5.89797 8.70109 5.65197C9.05406 5.1398 9.54578 5.05817 10.079 5.02587C10.9432 4.97288 11.8106 5.01613 12.6759 5.02587C13.0283 5.02954 13.3829 5.06178 13.73 5.14767C14.1827 5.25973 14.4251 5.62027 14.4997 6.12202C14.5384 6.38084 14.5582 6.64694 14.5528 6.90883C14.5303 8.03422 14.4826 9.159 14.4713 10.2838C14.4665 10.7253 14.4949 11.1778 14.5781 11.6077C14.6945 12.2069 15.0538 12.3574 15.4213 11.9244C15.888 11.3745 16.2995 10.7558 16.6857 10.1273C17.3873 8.98427 17.9114 7.72981 18.3625 6.43637C18.5959 5.76896 18.7745 5.624 19.4069 5.6222C20.5957 5.61913 21.7844 5.61793 22.9731 5.6222C23.1839 5.6234 23.4044 5.64596 23.6034 5.71784C23.9263 5.83477 24.0545 6.13377 23.9789 6.51319C23.8024 7.40231 23.3792 8.15802 22.9259 8.88456C22.1985 10.0501 21.4362 11.1877 20.6917 12.3399C20.5968 12.4866 20.5131 12.6431 20.4353 12.8021C20.1568 13.3733 20.1762 13.6936 20.5822 14.1692C21.2286 14.9261 21.9207 15.6343 22.5466 16.412C23.0016 16.9778 23.4226 17.5916 23.7831 18.2377C24.2391 19.0549 23.9574 19.8247 23.1056 19.9617C22.5697 20.0476 19.9521 19.9623 19.8168 19.9617C19.113 19.9581 18.4962 19.681 17.9994 19.1384C17.4469 18.5343 16.9448 17.8717 16.4142 17.2414C16.2544 17.0514 16.0838 16.8693 15.8998 16.7103C15.4658 16.3346 15.0399 16.418 14.8371 16.9966C14.6639 17.4935 14.5142 18.7985 14.5072 18.91C14.4708 19.4928 14.1441 19.8642 13.569 19.9001C11.9088 20.0025 10.3 19.7924 8.80126 18.8807C7.53099 18.1086 6.51664 17.0167 5.63797 15.7433C4.24218 13.7208 3.1397 11.4976 2.13316 9.20912C2.08172 9.09213 1.06225 6.62939 1.03485 6.51306C0.943785 6.12356 1.02874 5.75148 1.31863 5.6234C1.49935 5.54358 4.86059 5.62313 4.9165 5.62654C5.45284 5.65951 5.81857 5.91639 6.0445 6.54836Z"/></symbol></svg>